HIERARCHY
ROOT Hips
{
	OFFSET 0.000000 0.000000 0.000000
	CHANNELS 6 Xposition Yposition Zposition Xrotation Yrotation Zrotation
	JOINT LeftUpLeg_virtual
	{
		OFFSET 0.000000 0.000000 0.000000
		CHANNELS 3 Xrotation Yrotation Zrotation
		JOINT LeftUpLeg
		{
			OFFSET 15.427100 -6.655098 0.678600
			CHANNELS 3 Xrotation Yrotation Zrotation
			JOINT LeftLeg
			{
				OFFSET 4.081073 -39.591068 13.024000
				CHANNELS 3 Xrotation Yrotation Zrotation
				JOINT LeftFoot
				{
					OFFSET -4.081074 -37.707932 -15.979700
					CHANNELS 3 Xrotation Yrotation Zrotation
					JOINT LeftToeBase
					{
						OFFSET 5.346399 -15.068900 20.645000
						CHANNELS 3 Xrotation Yrotation Zrotation
						JOINT LeftToe_End
						{
							OFFSET 2.754700 0.931300 11.300900
							CHANNELS 3 Xrotation Yrotation Zrotation
							End Site
							{
								OFFSET 0 0 0
							}
						}
					}
				}
			}
		}
	}
	JOINT RightUpLeg_virtual
	{
		OFFSET 0.000000 0.000000 0.000000
		CHANNELS 3 Xrotation Yrotation Zrotation
		JOINT RightUpLeg
		{
			OFFSET -15.569500 -6.655098 0.678600
			CHANNELS 3 Xrotation Yrotation Zrotation
			JOINT RightLeg
			{
				OFFSET -4.081825 -39.591045 13.023800
				CHANNELS 3 Xrotation Yrotation Zrotation
				JOINT RightFoot
				{
					OFFSET 4.081824 -37.707954 -15.979600
					CHANNELS 3 Xrotation Yrotation Zrotation
					JOINT RightToeBase
					{
						OFFSET -5.346400 -15.068900 20.645000
						CHANNELS 3 Xrotation Yrotation Zrotation
						JOINT RightToe_End
						{
							OFFSET -2.754700 0.931300 11.300900
							CHANNELS 3 Xrotation Yrotation Zrotation
							End Site
							{
								OFFSET 0 0 0
							}
						}
					}
				}
			}
		}
	}
	JOINT Spine_virtual
	{
		OFFSET 0.000000 0.000000 0.000000
		CHANNELS 3 Xrotation Yrotation Zrotation
		JOINT Spine
		{
			OFFSET -0.279200 12.230698 -2.892100
			CHANNELS 3 Xrotation Yrotation Zrotation
			JOINT Spine1
			{
				OFFSET -0.232667 10.192268 -1.242267
				CHANNELS 3 Xrotation Yrotation Zrotation
				JOINT Spine1_split
				{
					OFFSET -0.232667 10.192268 -1.242267
					CHANNELS 3 Xrotation Yrotation Zrotation
					JOINT Spine2
					{
						OFFSET -0.232667 10.192268 -1.242267
						CHANNELS 3 Xrotation Yrotation Zrotation
						JOINT Neck_virtual
						{
							OFFSET 0.000000 0.000000 0.000000
							CHANNELS 3 Xrotation Yrotation Zrotation
							JOINT Neck
							{
								OFFSET -0.418800 17.814194 8.416900
								CHANNELS 3 Xrotation Yrotation Zrotation
								JOINT Head
								{
									OFFSET 0.000000 7.031097 3.806800
									CHANNELS 3 Xrotation Yrotation Zrotation
									JOINT HeadTop_End
									{
										OFFSET 0.000000 24.646606 12.978600
										CHANNELS 3 Xrotation Yrotation Zrotation
										End Site
										{
											OFFSET 0 0 0
										}
									}
								}
							}
						}
						JOINT LeftShoulder_virtual
						{
							OFFSET 0.000000 0.000000 0.000000
							CHANNELS 3 Xrotation Yrotation Zrotation
							JOINT LeftShoulder
							{
								OFFSET 8.476499 7.247704 -3.868750
								CHANNELS 3 Xrotation Yrotation Zrotation
								JOINT LeftShoulder_split
								{
									OFFSET 8.476499 7.247704 -3.868750
									CHANNELS 3 Xrotation Yrotation Zrotation
									JOINT LeftArm
									{
										OFFSET 9.308998 -2.777710 0.208600
										CHANNELS 3 Xrotation Yrotation Zrotation
										JOINT LeftForeArm
										{
											OFFSET 29.972298 0.000000 0.000000
											CHANNELS 3 Xrotation Yrotation Zrotation
											JOINT LeftHand
											{
												OFFSET 26.026505 0.000000 0.000000
												CHANNELS 3 Xrotation Yrotation Zrotation
												End Site
												{
													OFFSET 0 0 0
												}
											}
										}
									}
								}
							}
						}
						JOINT RightShoulder_virtual
						{
							OFFSET 0.000000 0.000000 0.000000
							CHANNELS 3 Xrotation Yrotation Zrotation
							JOINT RightShoulder
							{
								OFFSET -7.570500 7.247704 -3.868750
								CHANNELS 3 Xrotation Yrotation Zrotation
								JOINT RightShoulder_split
								{
									OFFSET -7.570500 7.247704 -3.868750
									CHANNELS 3 Xrotation Yrotation Zrotation
									JOINT RightArm
									{
										OFFSET -9.308998 -2.777710 0.208500
										CHANNELS 3 Xrotation Yrotation Zrotation
										JOINT RightForeArm
										{
											OFFSET -29.972300 0.000000 0.000000
											CHANNELS 3 Xrotation Yrotation Zrotation
											JOINT RightHand
											{
												OFFSET -26.026505 0.000000 0.000000
												CHANNELS 3 Xrotation Yrotation Zrotation
												End Site
												{
													OFFSET 0 0 0
												}
											}
										}
									}
								}
							}
						}
					}
				}
			}
		}
	}
}
MOTION
Frames: 7
Frame Time: 0.03333333
14.956897 37.278061 -5.033157 0.000000 0.000000 0.000000 4.184515 -37.386263 10.266218 -79.699271 -19.005034 57.484901 61.319451 15.301441 -6.119913 50.336035 -4.534887 -3.284030 -2.706579 0.659045 0.020827 0.000000 0.000000 0.000000 -0.103568 -32.243458 9.676713 7.976051 0.866633 -24.038118 97.166387 14.621955 -1.021346 12.576305 5.903857 18.834574 43.601042 -1.064758 -11.379582 0.000000 0.000000 0.000000 0.688149 -38.826931 9.075015 2.525731 -2.566866 -5.055247 2.159307 -4.064140 -2.160611 0.945085 0.982619 0.018650 0.000000 0.000000 0.000000 1.696421 -4.354886 -2.099053 0.196503 1.719519 2.254645 1.999020 15.139495 5.560268 0.000000 0.000000 0.000000 1.727339 -4.125003 -2.331958 1.574519 1.227816 -1.882415 -4.876751 1.229370 -1.098784 0.297564 -15.226722 -48.315696 178.082648 -86.790941 178.537812 0.000000 0.000000 0.000000 3.025960 -4.073095 -2.376468 5.429517 16.987001 3.311454 -1.465261 4.451902 -0.962409 -32.327282 -13.699409 46.186815 178.368273 83.017807 -178.818000 0.000000 0.000000 0.000000 
14.866771 37.292095 -5.026718 0.000000 0.000000 0.000000 4.329803 -37.349640 10.382070 -79.604612 -18.896229 57.590837 61.278231 15.436554 -6.339534 50.331159 -4.483583 -3.209822 -2.862677 0.660154 -0.001120 0.000000 0.000000 0.000000 0.047341 -32.243127 9.785230 7.833518 0.930910 -23.966220 97.193688 14.580545 -1.069726 12.519943 5.839921 18.841145 43.745067 -1.031832 -11.216790 0.000000 0.000000 0.000000 0.862871 -38.741304 9.177779 2.472581 -2.491297 -5.288107 2.184776 -3.997342 -2.339585 0.942442 0.968792 0.028747 0.000000 0.000000 0.000000 1.695560 -4.304456 -2.245623 0.029841 1.588634 2.704412 1.879150 15.216941 5.872230 0.000000 0.000000 0.000000 1.724787 -4.046297 -2.490996 1.533779 1.447897 -1.134230 -5.015036 1.102911 -1.258559 0.380398 -15.302361 -48.636534 -179.787668 -86.762991 -179.268137 0.000000 0.000000 0.000000 3.010149 -4.011779 -2.568541 5.392286 17.133290 3.839288 -1.547176 4.504434 -0.890982 -31.226365 -12.524814 43.783295 179.104499 78.915528 -179.517438 0.000000 0.000000 0.000000 
14.771613 37.314667 -5.010189 0.000000 0.000000 0.000000 4.460439 -37.307975 10.462548 -79.538523 -18.772775 57.721143 61.276762 15.585815 -6.554879 50.306136 -4.495104 -3.124464 -2.980149 0.665314 -0.032275 0.000000 0.000000 0.000000 0.183237 -32.218050 9.852595 7.734343 0.958630 -23.842194 97.188975 14.533177 -1.117152 12.484835 5.778255 18.830167 43.894627 -1.001507 -11.067182 0.000000 0.000000 0.000000 1.014964 -38.603522 9.244394 2.402194 -2.396102 -5.512407 2.217104 -3.935444 -2.508803 0.939421 0.934380 0.042795 0.000000 0.000000 0.000000 1.711599 -4.249083 -2.383807 -0.166674 1.430587 3.180922 1.800113 15.255024 6.139934 0.000000 0.000000 0.000000 1.722295 -3.965354 -2.641882 1.476487 1.726623 -0.539559 -5.040366 0.953883 -1.353142 0.431259 -15.448375 -48.813364 -178.208528 -86.687723 -177.623249 0.000000 0.000000 0.000000 3.003078 -3.946821 -2.749075 5.338998 17.263766 4.481980 -1.631843 4.503674 -0.785589 -30.470003 -11.602487 41.682886 179.434875 75.185493 -179.793761 0.000000 0.000000 0.000000 
14.669976 37.346233 -4.996254 0.000000 0.000000 0.000000 4.564501 -37.258231 10.492444 -79.499912 -18.647588 57.858983 61.312983 15.740268 -6.747723 50.267300 -4.566189 -3.029305 -3.060848 0.672689 -0.063797 0.000000 0.000000 0.000000 0.291416 -32.160270 9.868579 7.679958 0.936272 -23.670379 97.167767 14.480539 -1.163749 12.483274 5.726854 18.825374 43.995567 -0.976781 -10.951481 0.000000 0.000000 0.000000 1.133554 -38.425456 9.267021 2.320750 -2.283899 -5.724996 2.263311 -3.873506 -2.664797 0.944073 0.892648 0.066704 0.000000 0.000000 0.000000 1.750674 -4.188895 -2.511814 -0.375424 1.262923 3.688697 1.800415 15.303894 6.317391 0.000000 0.000000 0.000000 1.740796 -3.883645 -2.778012 1.407192 2.028587 -0.055530 -4.959697 0.780428 -1.346021 0.469383 -15.659921 -48.882776 -177.036523 -86.573829 -176.384526 0.000000 0.000000 0.000000 3.026151 -3.878608 -2.913407 5.262650 17.412910 5.263033 -1.683728 4.418841 -0.683633 -29.743104 -10.689582 39.795742 179.643537 71.936987 -179.931580 0.000000 0.000000 0.000000 
14.562846 37.386971 -4.989304 0.000000 0.000000 0.000000 4.638341 -37.191971 10.471792 -79.480514 -18.532059 57.978368 61.360664 15.891965 -6.901440 50.218962 -4.687814 -2.922686 -3.151570 0.679299 -0.084951 0.000000 0.000000 0.000000 0.360748 -32.066628 9.831099 7.649169 0.855999 -23.467541 97.142666 14.433358 -1.212752 12.532853 5.700719 18.877808 44.002090 -0.961235 -10.880592 0.000000 0.000000 0.000000 1.215910 -38.219427 9.251157 2.234051 -2.161298 -5.925227 2.324785 -3.808539 -2.808246 0.931700 0.838923 0.072447 0.000000 0.000000 0.000000 1.810267 -4.128708 -2.636041 -0.590560 1.098664 4.215065 1.899860 15.405850 6.367319 0.000000 0.000000 0.000000 1.788845 -3.805976 -2.898513 1.331287 2.318313 0.365796 -4.799321 0.606033 -1.234284 0.473586 -15.915222 -48.912381 -176.066321 -86.415533 -175.341174 0.000000 0.000000 0.000000 3.089469 -3.815228 -3.062902 5.172611 17.579619 6.109999 -1.717544 4.241889 -0.584830 -28.771789 -9.574803 38.013674 179.802503 69.167249 179.987069 0.000000 0.000000 0.000000 
14.450304 37.433151 -5.000137 0.000000 0.000000 0.000000 4.680058 -37.085277 10.409883 -79.477386 -18.426667 58.050092 61.390997 16.037887 -7.005559 50.172531 -4.846204 -2.807322 -3.287654 0.683887 -0.093184 0.000000 0.000000 0.000000 0.396238 -31.937551 9.756608 7.637816 0.724621 -23.250095 97.107306 14.398737 -1.264740 12.627266 5.706215 19.010744 43.937480 -0.957127 -10.847266 0.000000 0.000000 0.000000 1.265682 -37.992063 9.212277 2.149533 -2.037718 -6.113997 2.392610 -3.742710 -2.943604 0.940010 0.797314 0.082924 0.000000 0.000000 0.000000 1.883599 -4.072068 -2.759029 -0.807048 0.965341 4.730680 2.095311 15.599906 6.274081 0.000000 0.000000 0.000000 1.857998 -3.735442 -3.008410 1.253079 2.581635 0.756150 -4.625564 0.476837 -1.084249 0.439595 -16.194577 -48.968529 -175.137197 -86.232771 -174.335265 0.000000 0.000000 0.000000 3.180554 -3.762449 -3.204525 5.077377 17.743382 6.953714 -1.749300 4.035613 -0.509767 -27.373752 -8.160567 36.282238 179.962576 66.778698 179.894615 0.000000 0.000000 0.000000 
14.331768 37.484737 -5.018829 0.000000 0.000000 0.000000 4.690660 -36.914864 10.317674 -79.498423 -18.326304 58.052523 61.383054 16.185602 -7.062956 50.153119 -5.016582 -2.679994 -3.435520 0.686436 -0.109536 0.000000 0.000000 0.000000 0.409951 -31.770212 9.664835 7.640514 0.555541 -23.020039 97.044625 14.372487 -1.312893 12.747043 5.732928 19.216826 43.855156 -0.963670 -10.826822 0.000000 0.000000 0.000000 1.290125 -37.735487 9.161126 2.072007 -1.921102 -6.295608 2.452041 -3.677665 -3.076064 0.933787 0.754230 0.079241 0.000000 0.000000 0.000000 1.968774 -4.019948 -2.881849 -1.026961 0.879686 5.198812 2.346034 15.887797 6.045666 0.000000 0.000000 0.000000 1.937435 -3.672679 -3.110759 1.177265 2.815203 1.126352 -4.490551 0.415480 -0.967252 0.381993 -16.487880 -49.100519 -174.267810 -86.041211 -173.394406 0.000000 0.000000 0.000000 3.267364 -3.725484 -3.341787 4.989524 17.881360 7.702059 -1.755060 3.869679 -0.476456 -25.528939 -6.527731 34.683311 -179.890531 64.602374 179.788542 0.000000 0.000000 0.000000 
